<?xml version="1.0" standalone="no"?>
<!DOCTYPE svg PUBLIC "-//W3C//DTD SVG 20010904//EN"
 "http://www.w3.org/TR/2001/REC-SVG-20010904/DTD/svg10.dtd">
<svg version="1.0" xmlns="http://www.w3.org/2000/svg"
 width="535.000000pt" height="397.000000pt" viewBox="0 0 535.000000 397.000000"
 preserveAspectRatio="xMidYMid meet">

<g transform="translate(0.000000,397.000000) scale(0.100000,-0.100000)"
fill="#000000" stroke="none">
<path d="M0 1985 l0 -1985 2675 0 2675 0 0 1985 0 1985 -2675 0 -2675 0 0
-1985z m2339 1204 c67 -29 111 -62 111 -81 0 -15 -9 -18 -57 -18 -64 0 -128
-17 -192 -49 -44 -23 -51 -43 -26 -75 22 -29 18 -61 -10 -94 -14 -17 -25 -35
-25 -42 0 -6 32 -42 72 -80 67 -63 74 -67 109 -63 36 5 41 2 166 -115 70 -66
139 -131 152 -146 14 -14 29 -26 34 -26 5 0 48 37 96 83 223 214 218 210 259
204 35 -6 41 -2 115 69 l78 75 -30 35 c-35 39 -39 72 -15 110 15 23 15 26 0
43 -31 34 -116 64 -199 69 -42 2 -80 8 -82 13 -9 13 35 48 100 81 49 25 73 31
130 32 72 1 112 -10 177 -50 27 -17 45 -22 72 -17 35 5 38 3 148 -112 145
-151 155 -166 139 -212 -13 -34 -12 -37 18 -67 27 -27 34 -29 51 -18 32 20 52
14 92 -25 59 -57 54 -73 -59 -180 -54 -51 -106 -95 -115 -98 -24 -8 -52 9 -84
51 -25 32 -26 39 -16 66 9 25 8 35 -5 54 -21 33 -52 49 -66 35 -19 -19 -55
-12 -90 19 -19 17 -39 30 -43 30 -5 0 -43 -31 -83 -69 -71 -66 -75 -72 -73
-109 3 -38 -1 -43 -128 -168 -72 -71 -138 -133 -146 -137 -8 -4 -14 -13 -14
-20 0 -14 131 -147 145 -147 5 0 35 24 65 53 243 230 295 277 308 277 15 0 55
-35 242 -214 58 -56 146 -139 195 -186 50 -46 140 -132 200 -190 61 -58 148
-141 195 -185 367 -346 542 -512 765 -726 55 -53 119 -113 143 -134 23 -20 42
-41 42 -46 0 -5 -65 -9 -145 -9 l-146 0 -92 87 c-100 95 -219 208 -398 378
-63 61 -155 148 -205 194 -49 47 -127 121 -174 165 -580 551 -613 580 -629
574 -16 -6 -190 -172 -196 -186 -3 -10 16 -35 52 -70 32 -30 99 -93 148 -140
50 -47 135 -128 190 -181 93 -89 164 -156 375 -355 308 -292 480 -458 480
-462 0 -2 -66 -4 -147 -4 l-148 1 -70 67 c-119 113 -414 392 -505 477 -47 44
-130 123 -184 175 -55 52 -109 104 -121 115 -12 11 -93 88 -181 171 -332 314
-419 394 -429 394 -5 0 -32 -21 -60 -47 -169 -157 -435 -408 -805 -759 -58
-55 -145 -138 -195 -184 -49 -47 -130 -123 -179 -170 -49 -47 -97 -92 -106
-100 -9 -8 -46 -43 -82 -77 l-66 -63 -141 0 c-107 0 -141 3 -140 13 1 6 45 53
98 102 137 128 437 412 561 530 58 55 148 141 200 190 52 50 137 131 190 181
52 50 116 111 143 135 26 23 47 48 47 54 0 15 -194 195 -210 195 -6 0 -51 -37
-98 -82 -87 -83 -239 -226 -612 -578 -107 -101 -229 -216 -270 -255 -41 -39
-173 -165 -293 -278 l-218 -207 -140 0 c-157 0 -164 4 -102 60 38 33 120 111
308 290 55 53 150 143 210 200 166 157 477 453 590 560 55 53 143 136 195 186
52 49 138 130 190 180 210 199 232 219 241 219 4 0 66 -54 136 -120 213 -200
230 -215 237 -215 11 0 146 131 146 141 0 9 -3 12 -179 182 -107 105 -111 110
-111 152 0 40 -4 46 -71 106 -39 35 -75 66 -80 67 -5 2 -25 -10 -45 -27 -34
-31 -77 -41 -89 -21 -10 16 -20 12 -54 -21 -22 -21 -30 -36 -26 -47 4 -9 9
-24 12 -32 5 -19 -44 -85 -76 -100 -30 -14 -42 -6 -154 102 -103 98 -107 114
-47 173 39 38 39 38 80 25 22 -7 41 -11 43 -9 1 2 13 16 25 31 22 24 23 29 11
62 -12 32 -11 38 14 73 15 21 74 87 131 146 99 103 105 108 142 106 27 -2 56
7 92 26 29 15 68 31 85 36 46 12 133 2 186 -22z m528 -1554 c163 -155 247
-234 403 -380 179 -169 250 -235 330 -311 47 -44 124 -116 171 -160 48 -43 87
-85 88 -91 1 -10 -242 -13 -1184 -13 -942 0 -1185 3 -1184 13 0 6 91 96 202
200 111 103 234 217 272 254 39 36 99 93 135 127 145 136 388 365 450 423 101
96 123 112 136 105 7 -4 88 -79 181 -167z"/>
<path d="M2467 1264 c-4 -4 -7 -45 -7 -91 l0 -84 88 3 87 3 0 85 0 85 -80 3
c-45 1 -84 0 -88 -4z"/>
<path d="M2714 1257 c-3 -8 -4 -47 -2 -88 l3 -74 85 0 85 0 3 65 c5 109 5 110
-89 110 -57 0 -81 -4 -85 -13z"/>
<path d="M2464 1007 c-3 -8 -4 -47 -2 -88 l3 -74 85 0 85 0 3 88 3 87 -86 0
c-62 0 -87 -4 -91 -13z"/>
<path d="M2714 1007 c-3 -8 -4 -47 -2 -88 l3 -74 79 -3 c57 -2 82 1 87 10 10
15 12 129 3 152 -8 21 -162 24 -170 3z"/>
</g>
</svg>
